<?xml version="1.0" encoding="iso-8859-1"?>
<!-- Uploaded to: SVG Repo, www.svgrepo.com, Generator: SVG Repo Mixer Tools -->
<svg fill="#000000" height="800px" width="800px" version="1.1" id="Layer_1" xmlns="http://www.w3.org/2000/svg" xmlns:xlink="http://www.w3.org/1999/xlink"
	 viewBox="0 0 512.001 512.001" xml:space="preserve">
<g>
	<g>
		<path d="M458.727,0H53.277c-8.356,0-15.129,6.775-15.129,15.129v404.512c0,8.354,6.773,15.129,15.129,15.129h267.154v62.1
			c0,5.307,2.781,10.227,7.328,12.962c4.549,2.74,10.198,2.894,14.885,0.404l34.386-18.229l34.386,18.229
			c2.219,1.177,4.654,1.763,7.085,1.763c2.705,0,5.406-0.725,7.8-2.166c4.548-2.737,7.328-7.657,7.328-12.962v-62.1h25.094
			c8.356,0,15.129-6.775,15.129-15.129V15.129C473.856,6.775,467.083,0,458.727,0z M377.03,459.756c-2.434,0-4.87,0.589-7.086,1.763
			l-19.257,10.209v-36.958h52.686v36.957l-19.256-10.208C381.9,460.344,379.465,459.756,377.03,459.756z M443.598,404.512h-25.094
			h-82.943H68.406V30.257h375.192V404.512z"/>
	</g>
</g>
<g>
	<g>
		<path d="M110.766,103.919c-8.356,0-15.129,6.775-15.129,15.129v242.06c0,8.356,6.773,15.129,15.129,15.129
			c8.356,0,15.129-6.775,15.129-15.129v-242.06C125.895,110.694,119.122,103.919,110.766,103.919z"/>
	</g>
</g>
<g>
	<g>
		<path d="M121.461,62.963c-0.696-0.696-1.467-1.331-2.3-1.874c-0.817-0.545-1.694-1.014-2.602-1.392
			c-0.923-0.378-1.876-0.666-2.844-0.862c-1.952-0.393-3.964-0.393-5.915,0c-0.953,0.197-1.906,0.484-2.829,0.862
			c-0.908,0.378-1.785,0.847-2.602,1.392c-0.832,0.543-1.604,1.179-2.3,1.874c-2.814,2.814-4.433,6.717-4.433,10.696
			c0,3.994,1.619,7.882,4.433,10.696c0.696,0.696,1.469,1.331,2.3,1.891c0.817,0.543,1.694,1.014,2.617,1.392
			c0.908,0.378,1.861,0.664,2.829,0.862c0.968,0.197,1.967,0.286,2.95,0.286c0.983,0,1.982-0.091,2.95-0.286
			c0.968-0.198,1.921-0.484,2.844-0.862c0.908-0.378,1.785-0.849,2.602-1.392c0.832-0.56,1.604-1.195,2.3-1.891
			c2.814-2.814,4.433-6.703,4.433-10.696C125.893,69.68,124.275,65.777,121.461,62.963z"/>
	</g>
</g>
<g>
	<g>
		<path d="M411.646,50.683c-3.909-2.847-8.947-3.646-13.549-2.169l-151.221,48.78c-6.25,2.017-10.484,7.834-10.484,14.4v70.733
			v94.013c-8.519-4.776-18.331-7.514-28.775-7.514c-32.551,0-59.032,26.481-59.032,59.032s26.483,59.031,59.032,59.031
			c32.551,0,59.032-26.481,59.032-59.032V193.44l120.963-39.02v73.235c-8.519-4.776-18.331-7.514-28.775-7.514
			c-32.549,0-59.031,26.481-59.031,59.032s26.481,59.032,59.031,59.032c32.551,0,59.032-26.481,59.032-59.032V133.644V62.913
			C417.87,58.076,415.557,53.53,411.646,50.683z M207.617,356.731c-15.867,0-28.775-12.908-28.775-28.775
			s12.909-28.775,28.775-28.775s28.775,12.908,28.775,28.775S223.484,356.731,207.617,356.731z M358.838,307.948
			c-15.865,0-28.773-12.908-28.773-28.775c0-15.867,12.908-28.775,28.773-28.775s28.775,12.908,28.775,28.775
			C387.613,295.04,374.703,307.948,358.838,307.948z M387.613,122.627l-120.963,39.02v-38.94l120.963-39.018V122.627z"/>
	</g>
</g>
</svg>
